<?xml version="1.0" encoding="UTF-8"?>
<!DOCTYPE svg PUBLIC "-//W3C//DTD SVG 1.1//EN" "http://www.w3.org/Graphics/SVG/1.1/DTD/svg11.dtd">
<!-- Creator: CorelDRAW 2019 (64-Bit) -->
<svg xmlns="http://www.w3.org/2000/svg" xml:space="preserve" width="8.26772in" height="8.26772in" version="1.1" style="shape-rendering:geometricPrecision; text-rendering:geometricPrecision; image-rendering:optimizeQuality; fill-rule:evenodd; clip-rule:evenodd"
viewBox="0 0 8267.72 8267.72"
 xmlns:xlink="http://www.w3.org/1999/xlink">
 <defs>
  <style type="text/css">
   <![CDATA[
    .fil0 {fill:black}
   ]]>
  </style>
 </defs>
 <g id="Layer_x0020_1">
  <metadata id="CorelCorpID_0Corel-Layer"/>
  <path class="fil0" d="M564.31 2.81l7133.49 0c311.91,0 567.11,255.2 567.11,567.11l0 7133.49c0,311.91 -255.2,567.11 -567.11,567.11l-7133.49 0c-311.91,0 -567.11,-255.2 -567.11,-567.11l0 -7133.49c0,-311.91 255.2,-567.11 567.11,-567.11zm994.04 3174.82l192.41 0 0 958.63 599.52 959.44 444.83 0 8.93 0 395.69 0 143.59 -441.94 706.17 0 143.59 441.94 404.62 0 -623.22 -1918.07 -556.16 0 -620.16 1908.67 -593.65 -950.04 599.02 -958.63 -453.77 0 -599.02 958.63 0 959.44 -192.41 0c-105.82,0 -192.41,-86.58 -192.41,-192.41l0 -1533.25c0,-105.83 86.58,-192.41 192.41,-192.41zm4804.2 1918.07l-384.82 0 0 -1593.38 -533.51 0 0 -315.67 533.51 0 384.82 0 375.67 0c86.81,0 157.84,71.02 157.84,157.83l0 157.83 -533.51 0 0 1593.38zm-2922.51 -739.57l512.76 0 -256.38 -789.06 -256.38 789.06zm1393.26 -1178.5l384.82 0 0 1918.07 -384.82 0 0 -1918.07z"/>
 </g>
</svg>
