<?xml version="1.0" encoding="UTF-8"?>
<!DOCTYPE svg PUBLIC "-//W3C//DTD SVG 1.1//EN" "http://www.w3.org/Graphics/SVG/1.1/DTD/svg11.dtd">
<!-- Creator: CorelDRAW 2019 (64-Bit) -->
<svg xmlns="http://www.w3.org/2000/svg" xml:space="preserve" width="8.26772in" height="2.86763in" version="1.1" style="shape-rendering:geometricPrecision; text-rendering:geometricPrecision; image-rendering:optimizeQuality; fill-rule:evenodd; clip-rule:evenodd"
viewBox="0 0 8267.72 2867.63"
 xmlns:xlink="http://www.w3.org/1999/xlink">
 <defs>
  <style type="text/css">
   <![CDATA[
    .fil0 {fill:black}
   ]]>
  </style>
 </defs>
 <g id="Layer_x0020_1">
  <metadata id="CorelCorpID_0Corel-Layer"/>
  <path class="fil0" d="M284.73 2.8l287.66 0 0 1433.22 896.32 1434.41 665.06 0 13.35 0 591.58 0 214.68 -660.72 1055.76 0 214.69 660.72 604.93 0 -931.75 -2867.63 -831.49 0 -927.18 2853.57 -887.54 -1420.36 895.57 -1433.21 -678.41 0 -895.57 1433.22 0 1434.41 -287.66 0c-158.21,0 -287.66,-129.45 -287.66,-287.67l0 -2292.3c0,-158.22 129.44,-287.67 287.66,-287.67zm7182.55 2867.63l-575.33 0 0 -2382.2 -797.63 0 0 -471.94 797.63 0 575.33 0 561.65 0c129.79,0 235.98,106.18 235.98,235.97l0 235.97 -797.63 0 0 2382.2zm-4369.32 -1105.7l766.61 0 -383.3 -1179.68 -383.3 1179.68zm2083 -1761.93l575.33 0 0 2867.63 -575.33 0 0 -2867.63z"/>
 </g>
</svg>
